%FSLAX35Y35*%
%MOIN*%
%IN*%
%ADD10C,0.00591*%
%ADD11C,0.00061*%
%ADD12C,0.00394*%
%ADD13C,0.00461*%
%ADD14C,0.03307*%
%ADD15C,0.03937*%
%ADD16C,0.05042*%
%ADD17C,0.05906*%
%ADD18C,0.08661*%
%AMR_19*21,1,0.02362,0.19685,0,0,0.000*%
%ADD19R_19*%
%AMR_20*21,1,0.03937,0.19685,0,0,0.000*%
%ADD20R_20*%
%AMR_21*21,1,0.04646,0.03346,0,0,0.000*%
%ADD21R_21*%
%AMR_22*21,1,0.06299,0.19685,0,0,0.000*%
%ADD22R_22*%
%AMR_23*21,1,0.06693,0.11417,0,0,0.000*%
%ADD23R_23*%
%AMR_24*21,1,0.07874,0.19685,0,0,0.000*%
%ADD24R_24*%
%AMR_25*21,1,0.09055,0.12402,0,0,0.000*%
%ADD25R_25*%
%AMR_26*21,1,0.10236,0.19685,0,0,0.000*%
%ADD26R_26*%
%AMR_27*21,1,0.11417,0.19685,0,0,0.000*%
%ADD27R_27*%
%AMR_28*21,1,0.12205,0.14567,0,0,0.000*%
%ADD28R_28*%
%AMR_29*21,1,0.14961,0.06693,0,0,0.000*%
%ADD29R_29*%
%AMR_30*21,1,0.17520,0.07087,0,0,0.000*%
%ADD30R_30*%
%AMR_31*21,1,0.19685,0.19685,0,0,0.000*%
%ADD31R_31*%
G54D14*
X4826Y1621D03*
X22937Y1621D03*
X41047Y1621D03*
X59157Y1621D03*
X77267Y1621D03*
X95377Y1621D03*
X113488Y1621D03*
X131598Y1621D03*
X149708Y1621D03*
X167818Y1621D03*
X185929Y1621D03*
X204039Y1621D03*
X222149Y1621D03*
X240259Y1621D03*
X258370Y1621D03*
X276480Y1621D03*
X294590Y1621D03*
X312700Y1621D03*
X330811Y1621D03*
X348921Y1621D03*
X367031Y1621D03*
X385141Y1621D03*
X403251Y1621D03*
X421362Y1621D03*
X439472Y1621D03*
X457582Y1621D03*
X475692Y1621D03*
X493803Y1621D03*
X511913Y1621D03*
X530023Y1621D03*
X548133Y1621D03*
X566244Y1621D03*
X584354Y1621D03*
X602464Y1621D03*
X620574Y1621D03*
X638685Y1621D03*
X656795Y1621D03*
X674905Y1621D03*
X693015Y1621D03*
X711125Y1621D03*
X729236Y1621D03*
X747346Y1621D03*
X765456Y1621D03*
X783566Y1621D03*
G54D15*
X4645Y15125D03*
X22755Y15125D03*
X40866Y15125D03*
X58976Y15125D03*
X77086Y15125D03*
X95196Y15125D03*
X113307Y15125D03*
X131417Y15125D03*
X149527Y15125D03*
X167637Y15125D03*
X185748Y15125D03*
X203858Y15125D03*
X221968Y15125D03*
X240078Y15125D03*
X258188Y15125D03*
X276299Y15125D03*
X294409Y15125D03*
X312519Y15125D03*
X330629Y15125D03*
X348740Y15125D03*
X366850Y15125D03*
X384960Y15125D03*
X403070Y15125D03*
X421181Y15125D03*
X439291Y15125D03*
X457401Y15125D03*
X475511Y15125D03*
X493622Y15125D03*
X511732Y15125D03*
X529842Y15125D03*
X547952Y15125D03*
X566062Y15125D03*
X584173Y15125D03*
X602283Y15125D03*
X620393Y15125D03*
X638503Y15125D03*
X656614Y15125D03*
X674724Y15125D03*
X692834Y15125D03*
X710944Y15125D03*
X729055Y15125D03*
X747165Y15125D03*
X765275Y15125D03*
X783385Y15125D03*
G54D18*
X6377Y16542D03*
X22755Y15873D03*
X40866Y15873D03*
X58976Y15873D03*
X77086Y15873D03*
X95196Y15873D03*
X113307Y15873D03*
X131417Y15873D03*
X149527Y15873D03*
X167637Y15873D03*
X185748Y15873D03*
X203858Y15873D03*
X221968Y15873D03*
X240078Y15873D03*
X258188Y15873D03*
X276299Y15873D03*
X294409Y15873D03*
X312519Y15873D03*
X330629Y15873D03*
X348740Y15873D03*
X366850Y15873D03*
X384960Y15873D03*
X403070Y15873D03*
X421181Y15873D03*
X439291Y15873D03*
X457401Y15873D03*
X475511Y15873D03*
X493622Y15873D03*
X511732Y15873D03*
X529842Y15873D03*
X547952Y15873D03*
X566062Y15873D03*
X584173Y15873D03*
X602283Y15873D03*
X620393Y15873D03*
X638503Y15873D03*
X656614Y15873D03*
X674724Y15873D03*
X692834Y15873D03*
X710944Y15873D03*
X729055Y15873D03*
X747165Y15873D03*
X765275Y15873D03*
X782007Y16069D03*
G36*
X2362Y14928D02*
X2362Y14928D01*
X3149Y1542D01*
X3464Y3786D01*
X2362Y14928D01*
D02*G37*
G36*
X3149Y1542D02*
X3149Y1542D01*
X6299Y1542D01*
X7086Y15125D01*
X3149Y1542D01*
D02*G37*
G36*
X3149Y1542D02*
X3149Y1542D01*
X7086Y15125D01*
X2362Y14928D01*
X3149Y1542D01*
D02*G37*
G36*
X20472Y14928D02*
X20472Y14928D01*
X21259Y1542D01*
X21574Y3786D01*
X20472Y14928D01*
D02*G37*
G36*
X21259Y1542D02*
X21259Y1542D01*
X24409Y1542D01*
X25196Y15125D01*
X21259Y1542D01*
D02*G37*
G36*
X21259Y1542D02*
X21259Y1542D01*
X25196Y15125D01*
X20472Y14928D01*
X21259Y1542D01*
D02*G37*
G36*
X38582Y14928D02*
X38582Y14928D01*
X39370Y1542D01*
X39685Y3786D01*
X38582Y14928D01*
D02*G37*
G36*
X39370Y1542D02*
X39370Y1542D01*
X42519Y1542D01*
X43307Y15125D01*
X39370Y1542D01*
D02*G37*
G36*
X39370Y1542D02*
X39370Y1542D01*
X43307Y15125D01*
X38582Y14928D01*
X39370Y1542D01*
D02*G37*
G36*
X56692Y14928D02*
X56692Y14928D01*
X57480Y1542D01*
X57795Y3786D01*
X56692Y14928D01*
D02*G37*
G36*
X57480Y1542D02*
X57480Y1542D01*
X60629Y1542D01*
X61417Y15125D01*
X57480Y1542D01*
D02*G37*
G36*
X57480Y1542D02*
X57480Y1542D01*
X61417Y15125D01*
X56692Y14928D01*
X57480Y1542D01*
D02*G37*
G36*
X74803Y14928D02*
X74803Y14928D01*
X75590Y1542D01*
X75905Y3786D01*
X74803Y14928D01*
D02*G37*
G36*
X75590Y1542D02*
X75590Y1542D01*
X78740Y1542D01*
X79527Y15125D01*
X75590Y1542D01*
D02*G37*
G36*
X75590Y1542D02*
X75590Y1542D01*
X79527Y15125D01*
X74803Y14928D01*
X75590Y1542D01*
D02*G37*
G36*
X92913Y14928D02*
X92913Y14928D01*
X93700Y1542D01*
X94015Y3786D01*
X92913Y14928D01*
D02*G37*
G36*
X93700Y1542D02*
X93700Y1542D01*
X96850Y1542D01*
X97637Y15125D01*
X93700Y1542D01*
D02*G37*
G36*
X93700Y1542D02*
X93700Y1542D01*
X97637Y15125D01*
X92913Y14928D01*
X93700Y1542D01*
D02*G37*
G36*
X111023Y14928D02*
X111023Y14928D01*
X111811Y1542D01*
X112125Y3786D01*
X111023Y14928D01*
D02*G37*
G36*
X111811Y1542D02*
X111811Y1542D01*
X114960Y1542D01*
X115748Y15125D01*
X111811Y1542D01*
D02*G37*
G36*
X111811Y1542D02*
X111811Y1542D01*
X115748Y15125D01*
X111023Y14928D01*
X111811Y1542D01*
D02*G37*
G36*
X129133Y14928D02*
X129133Y14928D01*
X129921Y1542D01*
X130236Y3786D01*
X129133Y14928D01*
D02*G37*
G36*
X129921Y1542D02*
X129921Y1542D01*
X133070Y1542D01*
X133858Y15125D01*
X129921Y1542D01*
D02*G37*
G36*
X129921Y1542D02*
X129921Y1542D01*
X133858Y15125D01*
X129133Y14928D01*
X129921Y1542D01*
D02*G37*
G36*
X147244Y14928D02*
X147244Y14928D01*
X148031Y1542D01*
X148346Y3786D01*
X147244Y14928D01*
D02*G37*
G36*
X148031Y1542D02*
X148031Y1542D01*
X151181Y1542D01*
X151968Y15125D01*
X148031Y1542D01*
D02*G37*
G36*
X148031Y1542D02*
X148031Y1542D01*
X151968Y15125D01*
X147244Y14928D01*
X148031Y1542D01*
D02*G37*
G36*
X165354Y14928D02*
X165354Y14928D01*
X166141Y1542D01*
X166456Y3786D01*
X165354Y14928D01*
D02*G37*
G36*
X166141Y1542D02*
X166141Y1542D01*
X169291Y1542D01*
X170078Y15125D01*
X166141Y1542D01*
D02*G37*
G36*
X166141Y1542D02*
X166141Y1542D01*
X170078Y15125D01*
X165354Y14928D01*
X166141Y1542D01*
D02*G37*
G36*
X183464Y14928D02*
X183464Y14928D01*
X184251Y1542D01*
X184566Y3786D01*
X183464Y14928D01*
D02*G37*
G36*
X184251Y1542D02*
X184251Y1542D01*
X187401Y1542D01*
X188188Y15125D01*
X184251Y1542D01*
D02*G37*
G36*
X184251Y1542D02*
X184251Y1542D01*
X188188Y15125D01*
X183464Y14928D01*
X184251Y1542D01*
D02*G37*
G36*
X201574Y14928D02*
X201574Y14928D01*
X202362Y1542D01*
X202677Y3786D01*
X201574Y14928D01*
D02*G37*
G36*
X202362Y1542D02*
X202362Y1542D01*
X205511Y1542D01*
X206299Y15125D01*
X202362Y1542D01*
D02*G37*
G36*
X202362Y1542D02*
X202362Y1542D01*
X206299Y15125D01*
X201574Y14928D01*
X202362Y1542D01*
D02*G37*
G36*
X219685Y14928D02*
X219685Y14928D01*
X220472Y1542D01*
X220787Y3786D01*
X219685Y14928D01*
D02*G37*
G36*
X220472Y1542D02*
X220472Y1542D01*
X223622Y1542D01*
X224409Y15125D01*
X220472Y1542D01*
D02*G37*
G36*
X220472Y1542D02*
X220472Y1542D01*
X224409Y15125D01*
X219685Y14928D01*
X220472Y1542D01*
D02*G37*
G36*
X237795Y14928D02*
X237795Y14928D01*
X238582Y1542D01*
X238897Y3786D01*
X237795Y14928D01*
D02*G37*
G36*
X238582Y1542D02*
X238582Y1542D01*
X241732Y1542D01*
X242519Y15125D01*
X238582Y1542D01*
D02*G37*
G36*
X238582Y1542D02*
X238582Y1542D01*
X242519Y15125D01*
X237795Y14928D01*
X238582Y1542D01*
D02*G37*
G36*
X255905Y14928D02*
X255905Y14928D01*
X256692Y1542D01*
X257007Y3786D01*
X255905Y14928D01*
D02*G37*
G36*
X256692Y1542D02*
X256692Y1542D01*
X259842Y1542D01*
X260629Y15125D01*
X256692Y1542D01*
D02*G37*
G36*
X256692Y1542D02*
X256692Y1542D01*
X260629Y15125D01*
X255905Y14928D01*
X256692Y1542D01*
D02*G37*
G36*
X274015Y14928D02*
X274015Y14928D01*
X274803Y1542D01*
X275118Y3786D01*
X274015Y14928D01*
D02*G37*
G36*
X274803Y1542D02*
X274803Y1542D01*
X277952Y1542D01*
X278740Y15125D01*
X274803Y1542D01*
D02*G37*
G36*
X274803Y1542D02*
X274803Y1542D01*
X278740Y15125D01*
X274015Y14928D01*
X274803Y1542D01*
D02*G37*
G36*
X292125Y14928D02*
X292125Y14928D01*
X292913Y1542D01*
X293228Y3786D01*
X292125Y14928D01*
D02*G37*
G36*
X292913Y1542D02*
X292913Y1542D01*
X296062Y1542D01*
X296850Y15125D01*
X292913Y1542D01*
D02*G37*
G36*
X292913Y1542D02*
X292913Y1542D01*
X296850Y15125D01*
X292125Y14928D01*
X292913Y1542D01*
D02*G37*
G36*
X310236Y14928D02*
X310236Y14928D01*
X311023Y1542D01*
X311338Y3786D01*
X310236Y14928D01*
D02*G37*
G36*
X311023Y1542D02*
X311023Y1542D01*
X314173Y1542D01*
X314960Y15125D01*
X311023Y1542D01*
D02*G37*
G36*
X311023Y1542D02*
X311023Y1542D01*
X314960Y15125D01*
X310236Y14928D01*
X311023Y1542D01*
D02*G37*
G36*
X328346Y14928D02*
X328346Y14928D01*
X329133Y1542D01*
X329448Y3786D01*
X328346Y14928D01*
D02*G37*
G36*
X329133Y1542D02*
X329133Y1542D01*
X332283Y1542D01*
X333070Y15125D01*
X329133Y1542D01*
D02*G37*
G36*
X329133Y1542D02*
X329133Y1542D01*
X333070Y15125D01*
X328346Y14928D01*
X329133Y1542D01*
D02*G37*
G36*
X346456Y14928D02*
X346456Y14928D01*
X347244Y1542D01*
X347559Y3786D01*
X346456Y14928D01*
D02*G37*
G36*
X347244Y1542D02*
X347244Y1542D01*
X350393Y1542D01*
X351181Y15125D01*
X347244Y1542D01*
D02*G37*
G36*
X347244Y1542D02*
X347244Y1542D01*
X351181Y15125D01*
X346456Y14928D01*
X347244Y1542D01*
D02*G37*
G36*
X364566Y14928D02*
X364566Y14928D01*
X365354Y1542D01*
X365669Y3786D01*
X364566Y14928D01*
D02*G37*
G36*
X365354Y1542D02*
X365354Y1542D01*
X368503Y1542D01*
X369291Y15125D01*
X365354Y1542D01*
D02*G37*
G36*
X365354Y1542D02*
X365354Y1542D01*
X369291Y15125D01*
X364566Y14928D01*
X365354Y1542D01*
D02*G37*
G36*
X382677Y14928D02*
X382677Y14928D01*
X383464Y1542D01*
X383779Y3786D01*
X382677Y14928D01*
D02*G37*
G36*
X383464Y1542D02*
X383464Y1542D01*
X386614Y1542D01*
X387401Y15125D01*
X383464Y1542D01*
D02*G37*
G36*
X383464Y1542D02*
X383464Y1542D01*
X387401Y15125D01*
X382677Y14928D01*
X383464Y1542D01*
D02*G37*
G36*
X400787Y14928D02*
X400787Y14928D01*
X401574Y1542D01*
X401889Y3786D01*
X400787Y14928D01*
D02*G37*
G36*
X401574Y1542D02*
X401574Y1542D01*
X404724Y1542D01*
X405511Y15125D01*
X401574Y1542D01*
D02*G37*
G36*
X401574Y1542D02*
X401574Y1542D01*
X405511Y15125D01*
X400787Y14928D01*
X401574Y1542D01*
D02*G37*
G36*
X418897Y14928D02*
X418897Y14928D01*
X419685Y1542D01*
X420000Y3786D01*
X418897Y14928D01*
D02*G37*
G36*
X419685Y1542D02*
X419685Y1542D01*
X422834Y1542D01*
X423622Y15125D01*
X419685Y1542D01*
D02*G37*
G36*
X419685Y1542D02*
X419685Y1542D01*
X423622Y15125D01*
X418897Y14928D01*
X419685Y1542D01*
D02*G37*
G36*
X437007Y14928D02*
X437007Y14928D01*
X437795Y1542D01*
X438110Y3786D01*
X437007Y14928D01*
D02*G37*
G36*
X437795Y1542D02*
X437795Y1542D01*
X440944Y1542D01*
X441732Y15125D01*
X437795Y1542D01*
D02*G37*
G36*
X437795Y1542D02*
X437795Y1542D01*
X441732Y15125D01*
X437007Y14928D01*
X437795Y1542D01*
D02*G37*
G36*
X455118Y14928D02*
X455118Y14928D01*
X455905Y1542D01*
X456220Y3786D01*
X455118Y14928D01*
D02*G37*
G36*
X455905Y1542D02*
X455905Y1542D01*
X459055Y1542D01*
X459842Y15125D01*
X455905Y1542D01*
D02*G37*
G36*
X455905Y1542D02*
X455905Y1542D01*
X459842Y15125D01*
X455118Y14928D01*
X455905Y1542D01*
D02*G37*
G36*
X473228Y14928D02*
X473228Y14928D01*
X474015Y1542D01*
X474330Y3786D01*
X473228Y14928D01*
D02*G37*
G36*
X474015Y1542D02*
X474015Y1542D01*
X477165Y1542D01*
X477952Y15125D01*
X474015Y1542D01*
D02*G37*
G36*
X474015Y1542D02*
X474015Y1542D01*
X477952Y15125D01*
X473228Y14928D01*
X474015Y1542D01*
D02*G37*
G36*
X491338Y14928D02*
X491338Y14928D01*
X492125Y1542D01*
X492440Y3786D01*
X491338Y14928D01*
D02*G37*
G36*
X492125Y1542D02*
X492125Y1542D01*
X495275Y1542D01*
X496062Y15125D01*
X492125Y1542D01*
D02*G37*
G36*
X492125Y1542D02*
X492125Y1542D01*
X496062Y15125D01*
X491338Y14928D01*
X492125Y1542D01*
D02*G37*
G36*
X509448Y14928D02*
X509448Y14928D01*
X510236Y1542D01*
X510551Y3786D01*
X509448Y14928D01*
D02*G37*
G36*
X510236Y1542D02*
X510236Y1542D01*
X513385Y1542D01*
X514173Y15125D01*
X510236Y1542D01*
D02*G37*
G36*
X510236Y1542D02*
X510236Y1542D01*
X514173Y15125D01*
X509448Y14928D01*
X510236Y1542D01*
D02*G37*
G36*
X527559Y14928D02*
X527559Y14928D01*
X528346Y1542D01*
X528661Y3786D01*
X527559Y14928D01*
D02*G37*
G36*
X528346Y1542D02*
X528346Y1542D01*
X531496Y1542D01*
X532283Y15125D01*
X528346Y1542D01*
D02*G37*
G36*
X528346Y1542D02*
X528346Y1542D01*
X532283Y15125D01*
X527559Y14928D01*
X528346Y1542D01*
D02*G37*
G36*
X545669Y14928D02*
X545669Y14928D01*
X546456Y1542D01*
X546771Y3786D01*
X545669Y14928D01*
D02*G37*
G36*
X546456Y1542D02*
X546456Y1542D01*
X549606Y1542D01*
X550393Y15125D01*
X546456Y1542D01*
D02*G37*
G36*
X546456Y1542D02*
X546456Y1542D01*
X550393Y15125D01*
X545669Y14928D01*
X546456Y1542D01*
D02*G37*
G36*
X563779Y14928D02*
X563779Y14928D01*
X564566Y1542D01*
X564881Y3786D01*
X563779Y14928D01*
D02*G37*
G36*
X564566Y1542D02*
X564566Y1542D01*
X567716Y1542D01*
X568503Y15125D01*
X564566Y1542D01*
D02*G37*
G36*
X564566Y1542D02*
X564566Y1542D01*
X568503Y15125D01*
X563779Y14928D01*
X564566Y1542D01*
D02*G37*
G36*
X581889Y14928D02*
X581889Y14928D01*
X582677Y1542D01*
X582992Y3786D01*
X581889Y14928D01*
D02*G37*
G36*
X582677Y1542D02*
X582677Y1542D01*
X585826Y1542D01*
X586614Y15125D01*
X582677Y1542D01*
D02*G37*
G36*
X582677Y1542D02*
X582677Y1542D01*
X586614Y15125D01*
X581889Y14928D01*
X582677Y1542D01*
D02*G37*
G36*
X600000Y14928D02*
X600000Y14928D01*
X600787Y1542D01*
X601102Y3786D01*
X600000Y14928D01*
D02*G37*
G36*
X600787Y1542D02*
X600787Y1542D01*
X603937Y1542D01*
X604724Y15125D01*
X600787Y1542D01*
D02*G37*
G36*
X600787Y1542D02*
X600787Y1542D01*
X604724Y15125D01*
X600000Y14928D01*
X600787Y1542D01*
D02*G37*
G36*
X618110Y14928D02*
X618110Y14928D01*
X618897Y1542D01*
X619212Y3786D01*
X618110Y14928D01*
D02*G37*
G36*
X618897Y1542D02*
X618897Y1542D01*
X622047Y1542D01*
X622834Y15125D01*
X618897Y1542D01*
D02*G37*
G36*
X618897Y1542D02*
X618897Y1542D01*
X622834Y15125D01*
X618110Y14928D01*
X618897Y1542D01*
D02*G37*
G36*
X636220Y14928D02*
X636220Y14928D01*
X637007Y1542D01*
X637322Y3786D01*
X636220Y14928D01*
D02*G37*
G36*
X637007Y1542D02*
X637007Y1542D01*
X640157Y1542D01*
X640944Y15125D01*
X637007Y1542D01*
D02*G37*
G36*
X637007Y1542D02*
X637007Y1542D01*
X640944Y15125D01*
X636220Y14928D01*
X637007Y1542D01*
D02*G37*
G36*
X654330Y14928D02*
X654330Y14928D01*
X655118Y1542D01*
X655433Y3786D01*
X654330Y14928D01*
D02*G37*
G36*
X655118Y1542D02*
X655118Y1542D01*
X658267Y1542D01*
X659055Y15125D01*
X655118Y1542D01*
D02*G37*
G36*
X655118Y1542D02*
X655118Y1542D01*
X659055Y15125D01*
X654330Y14928D01*
X655118Y1542D01*
D02*G37*
G36*
X672440Y14928D02*
X672440Y14928D01*
X673228Y1542D01*
X673543Y3786D01*
X672440Y14928D01*
D02*G37*
G36*
X673228Y1542D02*
X673228Y1542D01*
X676377Y1542D01*
X677165Y15125D01*
X673228Y1542D01*
D02*G37*
G36*
X673228Y1542D02*
X673228Y1542D01*
X677165Y15125D01*
X672440Y14928D01*
X673228Y1542D01*
D02*G37*
G36*
X690551Y14928D02*
X690551Y14928D01*
X691338Y1542D01*
X691653Y3786D01*
X690551Y14928D01*
D02*G37*
G36*
X691338Y1542D02*
X691338Y1542D01*
X694488Y1542D01*
X695275Y15125D01*
X691338Y1542D01*
D02*G37*
G36*
X691338Y1542D02*
X691338Y1542D01*
X695275Y15125D01*
X690551Y14928D01*
X691338Y1542D01*
D02*G37*
G36*
X708661Y14928D02*
X708661Y14928D01*
X709448Y1542D01*
X709763Y3786D01*
X708661Y14928D01*
D02*G37*
G36*
X709448Y1542D02*
X709448Y1542D01*
X712598Y1542D01*
X713385Y15125D01*
X709448Y1542D01*
D02*G37*
G36*
X709448Y1542D02*
X709448Y1542D01*
X713385Y15125D01*
X708661Y14928D01*
X709448Y1542D01*
D02*G37*
G36*
X726771Y14928D02*
X726771Y14928D01*
X727559Y1542D01*
X727874Y3786D01*
X726771Y14928D01*
D02*G37*
G36*
X727559Y1542D02*
X727559Y1542D01*
X730708Y1542D01*
X731496Y15125D01*
X727559Y1542D01*
D02*G37*
G36*
X727559Y1542D02*
X727559Y1542D01*
X731496Y15125D01*
X726771Y14928D01*
X727559Y1542D01*
D02*G37*
G36*
X744881Y14928D02*
X744881Y14928D01*
X745669Y1542D01*
X745984Y3786D01*
X744881Y14928D01*
D02*G37*
G36*
X745669Y1542D02*
X745669Y1542D01*
X748818Y1542D01*
X749606Y15125D01*
X745669Y1542D01*
D02*G37*
G36*
X745669Y1542D02*
X745669Y1542D01*
X749606Y15125D01*
X744881Y14928D01*
X745669Y1542D01*
D02*G37*
G36*
X762992Y14928D02*
X762992Y14928D01*
X763779Y1542D01*
X764094Y3786D01*
X762992Y14928D01*
D02*G37*
G36*
X763779Y1542D02*
X763779Y1542D01*
X766929Y1542D01*
X767716Y15125D01*
X763779Y1542D01*
D02*G37*
G36*
X763779Y1542D02*
X763779Y1542D01*
X767716Y15125D01*
X762992Y14928D01*
X763779Y1542D01*
D02*G37*
G36*
X781102Y14928D02*
X781102Y14928D01*
X781889Y1542D01*
X782204Y3786D01*
X781102Y14928D01*
D02*G37*
G36*
X781889Y1542D02*
X781889Y1542D01*
X785039Y1542D01*
X785826Y15125D01*
X781889Y1542D01*
D02*G37*
G36*
X781889Y1542D02*
X781889Y1542D01*
X785826Y15125D01*
X781102Y14928D01*
X781889Y1542D01*
D02*G37*
M02*
